<svg width="38" height="39" viewBox="0 0 38 39" fill="none" xmlns="http://www.w3.org/2000/svg">
<g id="logo 1" clip-path="url(#clip0_379_10)">
<g id="Logo">
<g id="Mask group">
<mask id="mask0_379_10" style="mask-type:luminance" maskUnits="userSpaceOnUse" x="0" y="0" width="38" height="39">
<g id="Group">
<path id="Clip 2" fill-rule="evenodd" clip-rule="evenodd" d="M0 0.708008H37.541V38.2497H0V0.708008Z" fill="white"/>
</g>
</mask>
<g mask="url(#mask0_379_10)">
<g id="Group_2">
<path id="Fill 1" fill-rule="evenodd" clip-rule="evenodd" d="M32.1742 24.4134C32.1742 26.7594 30.3441 28.3821 28.0253 28.3821C25.6802 28.3821 23.851 26.7594 23.851 24.4134V14.5177C23.851 12.1734 25.6802 10.5754 28.0253 10.5754C30.3441 10.5754 32.1742 12.1734 32.1742 14.5177V24.4134ZM22.5156 28.0463H20.6082L20.2742 26.8878C19.8092 27.8406 18.83 28.3821 17.8517 28.3821C15.6094 28.3821 14.1916 26.7594 14.1916 24.5163V14.4149C14.1916 12.38 15.8933 10.5754 18.3404 10.5754C20.7884 10.5754 22.3864 12.38 22.3864 14.4149V17.2496H19.2686V14.3639C19.2686 13.8743 18.9592 13.5649 18.3923 13.5649C17.8517 13.5649 17.5414 13.8743 17.5414 14.3639V24.6446C17.5414 25.1351 17.8772 25.4946 18.4178 25.4946C18.9847 25.4946 19.3196 25.1351 19.3196 24.6446V21.8371H18.4433V19.5166H22.5156V28.0463ZM13.0815 13.7969H9.537V17.8939H11.9595V20.5731H9.537V25.0322H13.0815V28.0463H6.23815V10.8848H13.0815V13.7969ZM18.7705 0.707764C8.4031 0.707764 0 9.11256 0 19.4792C0 29.8458 8.4031 38.2497 18.7705 38.2497C29.138 38.2497 37.5411 29.8458 37.5411 19.4792C37.5411 9.11256 29.138 0.707764 18.7705 0.707764Z" fill="white"/>
<path id="Fill 4" fill-rule="evenodd" clip-rule="evenodd" d="M28.0252 13.5652C27.5874 13.5652 27.2271 13.8482 27.2271 14.3123V24.6194C27.2271 25.0835 27.5874 25.3666 28.0252 25.3666C28.4638 25.3666 28.7987 25.0835 28.7987 24.6194V14.3123C28.7987 13.8482 28.4638 13.5652 28.0252 13.5652Z" fill="white"/>
</g>
</g>
</g>
</g>
</g>
<defs>
<clipPath id="clip0_379_10">
<rect width="38" height="39" fill="white"/>
</clipPath>
</defs>
</svg>
